<svg xmlns="http://www.w3.org/2000/svg" viewBox="0 0 420 256"><defs><linearGradient id="b" x1="0" x2="1"><stop stop-color="#12090a"/><stop offset=".6" stop-color="#4b1018"/><stop offset="1" stop-color="#b46916"/></linearGradient><linearGradient id="g" x1="0" y1="0" x2="0" y2="1"><stop stop-color="#f6ce6b"/><stop offset="1" stop-color="#8e4d0c"/></linearGradient><filter id="s"><feGaussianBlur stdDeviation="10"/></filter></defs><rect width="420" height="256" fill="url(#b)"/><circle cx="338" cy="42" r="70" fill="#f7a92e" opacity=".16" filter="url(#s)"/><path d="M0 204 C90 160 150 235 235 188 S355 147 420 177" fill="none" stroke="#e8a238" stroke-width="2" opacity=".55"/><path d="M0 217 C84 180 165 241 248 197 S354 166 420 187" fill="none" stroke="#f5c562" opacity=".28"/><g transform="translate(306 28)"><rect x="31" y="22" width="26" height="144" rx="9" fill="#6d220d" stroke="#e6a23e"/><rect x="34" y="7" width="20" height="25" rx="4" fill="#c37a1c"/><rect x="28" y="76" width="32" height="54" rx="6" fill="url(#g)"/><path d="M38 88h12v28H38z" fill="#5f1b12" opacity=".9"/><circle cx="44" cy="102" r="8" fill="none" stroke="#f8d77d" stroke-width="2"/></g><g fill="#fff" opacity=".12"><rect x="28" y="35" width="120" height="7" rx="3"/><rect x="28" y="51" width="86" height="5" rx="2"/></g><g transform="translate(30 105)"><rect width="62" height="62" rx="15" fill="#fff" opacity=".07"/><path d="M17 39h7V25h-7zm12 0h7V18h-7zm12 0h7V12h-7z" fill="#f5c562"/></g></svg>